<svg width="698" height="627" viewBox="0 0 698 627" fill="none" xmlns="http://www.w3.org/2000/svg">
<rect width="698" height="627" fill="#2E3749"/>
<rect width="350" height="269" transform="translate(174 179)" fill="#2E3749"/>
<path d="M220 359L220 368" stroke="#5D6679" stroke-width="2" stroke-linecap="round"/>
<path d="M229.889 356L229.889 368" stroke="#5D6679" stroke-width="2" stroke-linecap="round"/>
<path d="M239.778 352L239.778 368" stroke="#5D6679" stroke-width="2" stroke-linecap="round"/>
<path d="M249.667 331L249.667 368" stroke="#5D6679" stroke-width="2" stroke-linecap="round"/>
<path d="M259.556 352L259.556 368" stroke="#5D6679" stroke-width="2" stroke-linecap="round"/>
<path d="M269.444 352L269.444 368" stroke="#5D6679" stroke-width="2" stroke-linecap="round"/>
<path d="M279.334 352L279.334 368" stroke="#5D6679" stroke-width="2" stroke-linecap="round"/>
<path d="M289.222 352L289.222 368" stroke="#5D6679" stroke-width="2" stroke-linecap="round"/>
<path d="M299.111 331L299.111 368" stroke="#5D6679" stroke-width="2" stroke-linecap="round"/>
<path d="M309 352L309 368" stroke="#5D6679" stroke-width="2" stroke-linecap="round"/>
<path d="M318.889 352L318.889 368" stroke="#5D6679" stroke-width="2" stroke-linecap="round"/>
<path d="M328.777 352L328.777 368" stroke="#5D6679" stroke-width="2" stroke-linecap="round"/>
<path d="M337.667 368C337.667 368.552 338.115 369 338.667 369C339.219 369 339.667 368.552 339.667 368L338.667 368L337.667 368ZM338.667 352L337.667 352L337.667 368L338.667 368L339.667 368L339.667 352L338.667 352Z" fill="#CECECE"/>
<path d="M348.556 305.5L348.556 415" stroke="#CECECE" stroke-linecap="round" stroke-linejoin="round" stroke-dasharray="4 4"/>
<path d="M357.444 368C357.444 368.552 357.892 369 358.444 369C358.997 369 359.444 368.552 359.444 368L358.444 368L357.444 368ZM358.444 352L357.444 352L357.444 368L358.444 368L359.444 368L359.444 352L358.444 352Z" fill="#CECECE"/>
<path d="M368.333 352L368.333 368" stroke="#5D6679" stroke-width="2" stroke-linecap="round"/>
<path d="M378.223 352L378.223 368" stroke="#5D6679" stroke-width="2" stroke-linecap="round"/>
<path d="M388.111 352L388.111 368" stroke="#5D6679" stroke-width="2" stroke-linecap="round"/>
<path d="M398 331L398 368" stroke="#5D6679" stroke-width="2" stroke-linecap="round"/>
<path d="M407.889 352L407.889 368" stroke="#5D6679" stroke-width="2" stroke-linecap="round"/>
<path d="M417.778 352L417.778 368" stroke="#5D6679" stroke-width="2" stroke-linecap="round"/>
<path d="M427.667 352L427.667 368" stroke="#5D6679" stroke-width="2" stroke-linecap="round"/>
<path d="M437.556 352L437.556 368" stroke="#5D6679" stroke-width="2" stroke-linecap="round"/>
<path d="M447.444 331L447.444 368" stroke="#5D6679" stroke-width="2" stroke-linecap="round"/>
<path d="M457.333 352L457.333 368" stroke="#5D6679" stroke-width="2" stroke-linecap="round"/>
<path d="M467.223 357L467.223 368" stroke="#5D6679" stroke-width="2" stroke-linecap="round"/>
<path d="M477.111 362L477.111 368" stroke="#5D6679" stroke-width="2" stroke-linecap="round"/>
<path d="M466.111 212C472.739 212 478.111 217.373 478.111 224V270C478.111 276.627 472.739 282 466.111 282H370.125L349.111 299V224C349.111 217.373 354.484 212 361.111 212H466.111Z" fill="#364157"/>
<path d="M478.111 224H478.611V224H478.111ZM370.125 282V281.5H369.948L369.811 281.611L370.125 282ZM349.111 299H348.611V300.048L349.426 299.389L349.111 299ZM466.111 212V212.5C472.463 212.5 477.611 217.649 477.611 224H478.111H478.611C478.611 217.096 473.015 211.5 466.111 211.5V212ZM478.111 224H477.611V270H478.111H478.611V224H478.111ZM478.111 270H477.611C477.611 276.351 472.463 281.5 466.111 281.5V282V282.5C473.015 282.5 478.611 276.904 478.611 270H478.111ZM466.111 282V281.5H370.125V282V282.5H466.111V282ZM370.125 282L369.811 281.611L348.797 298.611L349.111 299L349.426 299.389L370.439 282.389L370.125 282ZM349.111 299H349.611V224H349.111H348.611V299H349.111ZM349.111 224H349.611C349.611 217.649 354.76 212.5 361.111 212.5V212V211.5C354.208 211.5 348.611 217.096 348.611 224H349.111ZM361.111 212V212.5H466.111V212V211.5H361.111V212Z" fill="#5D6679"/>
<path d="M302.938 284C305.148 284 306.938 285.791 306.938 288V311.379C306.938 313.588 305.148 315.379 302.938 315.379H258.531L249.111 323V288C249.111 285.791 250.902 284 253.111 284H302.938Z" fill="#5D6679"/>
<path d="M328.111 246C330.32 246 332.111 247.791 332.111 250V264.248C332.111 266.457 330.32 268.248 328.111 268.248H297.79L291.111 273.651V250C291.111 247.791 292.902 246 295.111 246H328.111Z" fill="#5D6679"/>
<path d="M276.111 228C278.32 228 280.111 229.791 280.111 232V246.248C280.111 248.457 278.32 250.248 276.111 250.248H245.79L239.111 255.651V232C239.111 229.791 240.902 228 243.111 228H276.111Z" fill="#5D6679"/>
<path d="M434.111 300C436.32 300 438.111 301.791 438.111 304V318.248C438.111 320.457 436.32 322.248 434.111 322.248H403.79L397.111 327.651V304C397.111 301.791 398.902 300 401.111 300H434.111Z" fill="#5D6679"/>
<circle cx="348.611" cy="360.5" r="15.5" fill="#FF2C55" stroke="#2E3749" stroke-width="2"/>
<circle cx="348.611" cy="360.5" r="8.5" fill="#2E3749" stroke="white" stroke-width="2"/>
<path d="M365.08 255.461C365.271 255.528 365.846 255.735 366.213 255.933L376.03 259.418L385.985 255.933C386.4 255.716 387.069 255.498 387.22 255.45C387.241 255.443 387.263 255.437 387.284 255.431C388.636 255.044 389.37 254.762 390.163 254.458C390.926 254.165 391.745 253.85 393.224 253.4C395.916 252.581 394.548 250.634 394.067 249.949C394.007 249.864 393.961 249.798 393.938 249.756C393.913 249.71 393.854 249.588 393.766 249.407C393.147 248.125 391.086 243.856 389.118 241.998L389.107 241.988C386.868 239.874 386.042 239.094 384.484 237.976C383.234 237.079 381.36 236.373 381.202 236.314L381.199 236.313L381.18 236.306C381 236.24 378.592 235.372 376.03 235.428C373.464 235.485 371.245 236.249 371.086 236.305L371.067 236.311C370.922 236.366 369.037 237.074 367.782 237.975C366.224 239.093 365.399 239.872 363.16 241.987L363.149 241.997C361.181 243.855 359.12 248.123 358.501 249.405C358.413 249.587 358.355 249.709 358.329 249.755C358.306 249.797 358.26 249.862 358.2 249.948C357.719 250.632 356.351 252.58 359.043 253.399C360.522 253.849 361.341 254.163 362.105 254.456C362.891 254.758 363.619 255.037 364.949 255.419C364.993 255.432 365.037 255.446 365.08 255.461Z" fill="#FF2C55"/>
<path d="M390.878 233.536C390.405 231.869 389.136 229.956 386.877 231.438C384.404 233.437 385.142 234.075 380.953 237.608C376.763 241.14 388.813 244.487 388.813 244.487C388.813 244.487 392.456 239.102 390.878 233.536Z" fill="#FF2C55"/>
<path d="M361.633 233.536C362.106 231.869 363.375 229.956 365.634 231.438C368.106 233.437 367.369 234.075 371.558 237.608C375.748 241.14 363.697 244.487 363.697 244.487C363.697 244.487 360.054 239.102 361.633 233.536Z" fill="#FF2C55"/>
<path d="M368.837 258.247C369.356 258.73 371.938 261.459 372.948 262.852C373.298 263.334 373.752 263.866 374.186 264.207C374.619 264.547 375.337 264.795 376.134 264.796C376.93 264.795 377.648 264.547 378.081 264.207C378.515 263.866 378.969 263.334 379.319 262.852C380.329 261.459 382.911 258.73 383.43 258.247C384.132 257.592 385.091 256.938 387.837 256.229L392.634 254.674C393.398 254.421 394.093 253.503 393.777 252.658C393.602 252.192 393.454 251.844 393.267 251.58L393.355 251.818C393.663 252.666 392.985 253.587 392.24 253.841L387.558 255.402C384.877 256.113 383.941 256.77 383.255 257.426C382.749 257.911 380.229 260.651 379.242 262.048C378.901 262.532 378.458 263.066 378.034 263.408C377.612 263.749 376.911 263.999 376.134 264C375.356 263.999 374.655 263.749 374.233 263.408C373.809 263.066 373.366 262.532 373.025 262.048C372.038 260.651 369.518 257.911 369.012 257.426C368.326 256.77 367.391 256.113 364.709 255.402L360.027 253.841C359.282 253.587 358.604 252.666 358.912 251.818L359 251.58C358.813 251.844 358.665 252.192 358.49 252.658C358.174 253.503 358.869 254.421 359.633 254.674L364.43 256.229C367.176 256.938 368.135 257.592 368.837 258.247Z" fill="#CECECE"/>
<path d="M373.025 262.049C372.039 260.652 369.519 257.913 369.012 257.427C368.326 256.771 367.391 256.114 364.71 255.403L360.027 253.842C359.282 253.588 358.604 252.667 358.912 251.819C359.272 250.83 359.516 250.37 360.254 250.124C362.583 249.348 364.757 251.729 367.387 252.5C370.116 253.301 371.853 253.048 373.245 254.894C374.309 256.307 373.951 256.58 374.092 258.318C374.155 259.095 375.245 259.438 376.134 259.432C377.023 259.438 378.113 259.095 378.176 258.318C378.317 256.58 377.958 256.307 379.023 254.894C380.414 253.048 382.151 253.301 384.881 252.5C387.51 251.729 389.684 249.348 392.014 250.124C392.751 250.37 392.996 250.83 393.355 251.819C393.664 252.667 392.985 253.588 392.24 253.842L387.558 255.403C384.877 256.114 383.941 256.771 383.256 257.427C382.749 257.913 380.229 260.652 379.243 262.049C378.901 262.533 378.458 263.067 378.034 263.409C377.612 263.75 376.911 264 376.134 264.001C375.356 264 374.656 263.75 374.233 263.409C373.809 263.067 373.366 262.533 373.025 262.049Z" fill="white"/>
<path fill-rule="evenodd" clip-rule="evenodd" d="M373.79 259.858C374.109 259.72 374.492 259.84 374.646 260.126C374.805 260.421 375 260.617 375.219 260.742C375.437 260.868 375.717 260.945 376.082 260.951C376.456 260.957 376.749 260.883 376.979 260.756C377.209 260.629 377.414 260.428 377.576 260.126C377.73 259.84 378.113 259.72 378.432 259.858C378.751 259.996 378.884 260.34 378.731 260.626C378.478 261.095 378.119 261.476 377.65 261.735C377.182 261.994 376.64 262.109 376.06 262.1C375.497 262.091 374.977 261.969 374.528 261.711C374.078 261.452 373.736 261.08 373.492 260.626C373.338 260.34 373.471 259.996 373.79 259.858Z" fill="#172031"/>
<path d="M365.05 245.045C364.215 245.813 363.893 246.373 363.284 247.306C362.742 248.137 361.507 249.55 360.728 250.008C362.882 249.664 364.937 251.781 367.387 252.5C370.117 253.301 371.854 253.048 373.245 254.894C373.763 255.581 373.944 255.998 374.01 256.445C374.053 255.741 374.121 255.027 374.157 254.13C374.205 252.984 374.131 252.282 374.016 251.105C373.935 250.272 373.875 248.981 373.875 248.981C373.875 248.981 373.834 246.9 373.188 245.787C372.643 244.847 372.152 244.315 371.121 243.832C370.103 243.355 369.565 243.212 368.227 243.441C366.836 243.679 365.803 244.35 365.05 245.045Z" fill="#CA2243"/>
<path d="M387.218 245.045C388.053 245.813 388.375 246.373 388.983 247.306C389.525 248.137 390.761 249.55 391.54 250.008C389.386 249.664 387.331 251.781 384.88 252.5C382.151 253.301 380.414 253.048 379.022 254.894C378.505 255.581 378.324 255.998 378.258 256.445C378.214 255.741 378.147 255.027 378.11 254.13C378.063 252.984 378.137 252.282 378.251 251.105C378.332 250.272 378.393 248.981 378.393 248.981C378.393 248.981 378.434 246.9 379.079 245.787C379.625 244.847 380.115 244.315 381.146 243.832C382.165 243.355 382.702 243.212 384.041 243.441C385.431 243.679 386.465 244.35 387.218 245.045Z" fill="#CA2243"/>
<path d="M376.134 259.43C377.033 259.438 378.203 259.218 378.203 258.135C378.203 257.64 378.252 257.197 378.252 256.779C378.252 256.36 374.016 256.36 374.016 256.779C374.016 257.197 374.064 257.64 374.064 258.135C374.064 259.148 375.234 259.438 376.134 259.43Z" fill="#172031"/>
<path fill-rule="evenodd" clip-rule="evenodd" d="M367.678 250.458C367.678 249.267 368.627 248.301 369.799 248.301C370.97 248.301 371.92 249.267 371.92 250.458C371.92 250.743 371.865 250.999 371.69 251.173C371.512 251.349 371.278 251.373 371.088 251.366C370.929 251.361 370.745 251.329 370.568 251.299C370.535 251.293 370.501 251.287 370.468 251.281C370.251 251.245 370.028 251.213 369.799 251.213C369.569 251.213 369.346 251.245 369.129 251.281C369.096 251.287 369.063 251.293 369.029 251.299C368.852 251.329 368.668 251.361 368.509 251.366C368.32 251.373 368.085 251.349 367.908 251.173C367.732 250.999 367.678 250.743 367.678 250.458Z" fill="#172031"/>
<path fill-rule="evenodd" clip-rule="evenodd" d="M380.687 250.458C380.687 249.267 381.636 248.301 382.807 248.301C383.979 248.301 384.928 249.267 384.928 250.458C384.928 250.743 384.874 250.999 384.699 251.173C384.521 251.349 384.287 251.373 384.097 251.366C383.938 251.361 383.754 251.329 383.577 251.299C383.543 251.293 383.51 251.287 383.477 251.281C383.26 251.245 383.037 251.213 382.807 251.213C382.578 251.213 382.355 251.245 382.138 251.281C382.105 251.287 382.072 251.293 382.038 251.299C381.861 251.329 381.677 251.361 381.518 251.366C381.328 251.373 381.094 251.349 380.916 251.173C380.741 250.999 380.687 250.743 380.687 250.458Z" fill="#172031"/>
<path d="M421.324 249.688V252.472H419.74V256H416.212L416.188 252.472H409.924V250L414.052 239.368L417.172 240.496L413.668 249.688H416.236L416.644 245.824H419.74V249.688H421.324ZM428.277 239.44C430.101 239.44 431.493 240.16 432.453 241.6C433.429 243.04 433.917 245.144 433.917 247.912C433.917 250.712 433.437 252.832 432.477 254.272C431.517 255.696 430.117 256.408 428.277 256.408C426.437 256.408 425.037 255.696 424.077 254.272C423.117 252.832 422.637 250.712 422.637 247.912C422.637 245.112 423.117 243 424.077 241.576C425.037 240.152 426.437 239.44 428.277 239.44ZM428.277 242.176C427.813 242.176 427.445 242.344 427.173 242.68C426.917 243.016 426.725 243.6 426.597 244.432C426.469 245.248 426.405 246.408 426.405 247.912C426.405 249.432 426.469 250.608 426.597 251.44C426.725 252.272 426.917 252.856 427.173 253.192C427.445 253.512 427.813 253.672 428.277 253.672C428.741 253.672 429.109 253.512 429.381 253.192C429.653 252.856 429.845 252.28 429.957 251.464C430.085 250.632 430.149 249.448 430.149 247.912C430.149 246.392 430.085 245.224 429.957 244.408C429.829 243.576 429.629 243 429.357 242.68C429.101 242.344 428.741 242.176 428.277 242.176Z" fill="#F5F5F5"/>
<path d="M267.395 294.862V306H264.903V297.337L262.791 298.773L261.669 297.123L265.118 294.862H267.395ZM275.411 296.678H271.781V299.103C272.265 298.839 272.771 298.707 273.299 298.707C274.146 298.707 274.834 299.026 275.362 299.664C275.901 300.291 276.17 301.176 276.17 302.32C276.17 303.101 276.005 303.794 275.675 304.399C275.345 304.993 274.872 305.455 274.256 305.785C273.651 306.116 272.942 306.281 272.128 306.281C270.753 306.281 269.614 305.725 268.712 304.614L270.115 303.343C270.401 303.673 270.692 303.926 270.989 304.102C271.297 304.278 271.644 304.366 272.029 304.366C272.535 304.366 272.92 304.196 273.184 303.855C273.459 303.514 273.596 303.008 273.596 302.337C273.596 301.655 273.481 301.171 273.25 300.885C273.019 300.599 272.694 300.456 272.276 300.456C272.067 300.456 271.869 300.483 271.682 300.538C271.506 300.593 271.308 300.692 271.088 300.835H269.389V294.846H275.692L275.411 296.678Z" fill="#364157"/>
<path d="M407.395 309.63C407.918 309.63 408.385 309.756 408.795 310.008C409.206 310.251 409.528 310.61 409.761 311.086C409.995 311.553 410.111 312.113 410.111 312.766C410.111 313.41 409.971 313.998 409.691 314.53C409.411 315.053 409.01 315.468 408.487 315.776C407.974 316.084 407.372 316.238 406.681 316.238C405.468 316.238 404.567 315.832 403.979 315.02C403.391 314.208 403.097 313.093 403.097 311.674C403.097 310.61 403.261 309.677 403.587 308.874C403.923 308.071 404.399 307.451 405.015 307.012C405.641 306.564 406.373 306.34 407.213 306.34C408.025 306.34 408.744 306.55 409.369 306.97L408.557 308.286C408.137 308.043 407.708 307.922 407.269 307.922C406.737 307.922 406.308 308.146 405.981 308.594C405.655 309.042 405.459 309.677 405.393 310.498C405.963 309.919 406.63 309.63 407.395 309.63ZM406.709 314.656C407.101 314.656 407.395 314.493 407.591 314.166C407.797 313.83 407.899 313.373 407.899 312.794C407.899 312.206 407.806 311.786 407.619 311.534C407.433 311.282 407.153 311.156 406.779 311.156C406.275 311.156 405.813 311.403 405.393 311.898C405.412 312.897 405.519 313.606 405.715 314.026C405.911 314.446 406.243 314.656 406.709 314.656ZM414.57 306.34C415.727 306.34 416.609 306.765 417.216 307.614C417.832 308.463 418.14 309.686 418.14 311.282C418.14 312.869 417.832 314.091 417.216 314.95C416.609 315.809 415.727 316.238 414.57 316.238C413.412 316.238 412.526 315.809 411.91 314.95C411.303 314.091 411 312.869 411 311.282C411 309.686 411.303 308.463 411.91 307.614C412.526 306.765 413.412 306.34 414.57 306.34ZM414.57 307.978C414.252 307.978 414 308.081 413.814 308.286C413.627 308.491 413.487 308.832 413.394 309.308C413.31 309.784 413.268 310.442 413.268 311.282C413.268 312.122 413.31 312.785 413.394 313.27C413.487 313.746 413.627 314.087 413.814 314.292C414 314.497 414.252 314.6 414.57 314.6C414.887 314.6 415.139 314.502 415.326 314.306C415.512 314.101 415.648 313.76 415.732 313.284C415.825 312.799 415.872 312.131 415.872 311.282C415.872 310.433 415.825 309.77 415.732 309.294C415.648 308.809 415.512 308.468 415.326 308.272C415.139 308.076 414.887 307.978 414.57 307.978Z" fill="#364157"/>
<path d="M428.138 309.424C428.642 309.424 429.046 309.596 429.35 309.94C429.654 310.276 429.806 310.744 429.806 311.344V316H427.91V311.668C427.91 311.1 427.73 310.816 427.37 310.816C427.17 310.816 426.994 310.884 426.842 311.02C426.69 311.156 426.542 311.364 426.398 311.644V316H424.502V311.668C424.502 311.1 424.322 310.816 423.962 310.816C423.77 310.816 423.594 310.888 423.434 311.032C423.282 311.168 423.134 311.372 422.99 311.644V316H421.094V309.628H422.75L422.882 310.372C423.13 310.052 423.402 309.816 423.698 309.664C424.002 309.504 424.346 309.424 424.73 309.424C425.09 309.424 425.398 309.512 425.654 309.688C425.918 309.864 426.11 310.112 426.23 310.432C426.486 310.088 426.766 309.836 427.07 309.676C427.382 309.508 427.738 309.424 428.138 309.424ZM433.126 309.628V316H431.23V309.628H433.126ZM432.166 306.268C432.494 306.268 432.762 306.372 432.97 306.58C433.186 306.78 433.294 307.036 433.294 307.348C433.294 307.66 433.186 307.92 432.97 308.128C432.762 308.328 432.494 308.428 432.166 308.428C431.838 308.428 431.57 308.328 431.362 308.128C431.154 307.92 431.05 307.66 431.05 307.348C431.05 307.036 431.154 306.78 431.362 306.58C431.57 306.372 431.838 306.268 432.166 306.268Z" fill="#364157"/>
<path d="M307.732 252.34C308.414 252.34 308.997 252.461 309.482 252.704C309.977 252.947 310.35 253.273 310.602 253.684C310.864 254.095 310.994 254.547 310.994 255.042C310.994 255.546 310.892 256.027 310.686 256.484C310.481 256.941 310.117 257.469 309.594 258.066C309.072 258.654 308.311 259.401 307.312 260.306H311.19L310.966 262H304.806V260.432C305.954 259.303 306.79 258.453 307.312 257.884C307.835 257.305 308.199 256.825 308.404 256.442C308.619 256.059 308.726 255.667 308.726 255.266C308.726 254.883 308.614 254.585 308.39 254.37C308.176 254.146 307.882 254.034 307.508 254.034C307.172 254.034 306.874 254.113 306.612 254.272C306.351 254.421 306.076 254.669 305.786 255.014L304.484 253.978C304.876 253.465 305.343 253.063 305.884 252.774C306.435 252.485 307.051 252.34 307.732 252.34ZM315.735 252.34C316.892 252.34 317.774 252.765 318.381 253.614C318.997 254.463 319.305 255.686 319.305 257.282C319.305 258.869 318.997 260.091 318.381 260.95C317.774 261.809 316.892 262.238 315.735 262.238C314.577 262.238 313.691 261.809 313.075 260.95C312.468 260.091 312.165 258.869 312.165 257.282C312.165 255.686 312.468 254.463 313.075 253.614C313.691 252.765 314.577 252.34 315.735 252.34ZM315.735 253.978C315.417 253.978 315.165 254.081 314.979 254.286C314.792 254.491 314.652 254.832 314.559 255.308C314.475 255.784 314.433 256.442 314.433 257.282C314.433 258.122 314.475 258.785 314.559 259.27C314.652 259.746 314.792 260.087 314.979 260.292C315.165 260.497 315.417 260.6 315.735 260.6C316.052 260.6 316.304 260.502 316.491 260.306C316.677 260.101 316.813 259.76 316.897 259.284C316.99 258.799 317.037 258.131 317.037 257.282C317.037 256.433 316.99 255.77 316.897 255.294C316.813 254.809 316.677 254.468 316.491 254.272C316.304 254.076 316.052 253.978 315.735 253.978Z" fill="#F5F5F5"/>
<path d="M257.618 234.536V244H255.448V236.692L253.418 237.938L252.452 236.468L255.644 234.536H257.618ZM262.866 234.34C264.023 234.34 264.905 234.765 265.512 235.614C266.128 236.463 266.436 237.686 266.436 239.282C266.436 240.869 266.128 242.091 265.512 242.95C264.905 243.809 264.023 244.238 262.866 244.238C261.708 244.238 260.822 243.809 260.206 242.95C259.599 242.091 259.296 240.869 259.296 239.282C259.296 237.686 259.599 236.463 260.206 235.614C260.822 234.765 261.708 234.34 262.866 234.34ZM262.866 235.978C262.548 235.978 262.296 236.081 262.11 236.286C261.923 236.491 261.783 236.832 261.69 237.308C261.606 237.784 261.564 238.442 261.564 239.282C261.564 240.122 261.606 240.785 261.69 241.27C261.783 241.746 261.923 242.087 262.11 242.292C262.296 242.497 262.548 242.6 262.866 242.6C263.183 242.6 263.435 242.502 263.622 242.306C263.808 242.101 263.944 241.76 264.028 241.284C264.121 240.799 264.168 240.131 264.168 239.282C264.168 238.433 264.121 237.77 264.028 237.294C263.944 236.809 263.808 236.468 263.622 236.272C263.435 236.076 263.183 235.978 262.866 235.978Z" fill="#364157"/>
<path d="M458.151 247.136C458.907 247.136 459.513 247.394 459.969 247.91C460.425 248.414 460.653 249.116 460.653 250.016V257H457.809V250.502C457.809 249.65 457.539 249.224 456.999 249.224C456.699 249.224 456.435 249.326 456.207 249.53C455.979 249.734 455.757 250.046 455.541 250.466V257H452.697V250.502C452.697 249.65 452.427 249.224 451.887 249.224C451.599 249.224 451.335 249.332 451.095 249.548C450.867 249.752 450.645 250.058 450.429 250.466V257H447.585V247.442H450.069L450.267 248.558C450.639 248.078 451.047 247.724 451.491 247.496C451.947 247.256 452.463 247.136 453.039 247.136C453.579 247.136 454.041 247.268 454.425 247.532C454.821 247.796 455.109 248.168 455.289 248.648C455.673 248.132 456.093 247.754 456.549 247.514C457.017 247.262 457.551 247.136 458.151 247.136ZM465.634 247.442V257H462.79V247.442H465.634ZM464.194 242.402C464.686 242.402 465.088 242.558 465.4 242.87C465.724 243.17 465.886 243.554 465.886 244.022C465.886 244.49 465.724 244.88 465.4 245.192C465.088 245.492 464.686 245.642 464.194 245.642C463.702 245.642 463.3 245.492 462.988 245.192C462.676 244.88 462.52 244.49 462.52 244.022C462.52 243.554 462.676 243.17 462.988 242.87C463.3 242.558 463.702 242.402 464.194 242.402Z" fill="#F5F5F5"/>
<path d="M287.732 299.343C288.252 299.343 288.669 299.521 288.982 299.876C289.296 300.222 289.452 300.705 289.452 301.323V306.125H287.497V301.658C287.497 301.072 287.311 300.779 286.94 300.779C286.734 300.779 286.552 300.849 286.396 300.989C286.239 301.13 286.086 301.344 285.938 301.633V306.125H283.983V301.658C283.983 301.072 283.797 300.779 283.426 300.779C283.228 300.779 283.046 300.853 282.881 301.002C282.724 301.142 282.572 301.352 282.423 301.633V306.125H280.468V299.554H282.176L282.312 300.321C282.568 299.991 282.848 299.748 283.153 299.591C283.467 299.426 283.822 299.343 284.218 299.343C284.589 299.343 284.907 299.434 285.171 299.616C285.443 299.797 285.641 300.053 285.765 300.383C286.029 300.028 286.317 299.768 286.631 299.603C286.953 299.43 287.32 299.343 287.732 299.343ZM292.877 299.554V306.125H290.922V299.554H292.877ZM291.887 296.089C292.225 296.089 292.501 296.196 292.716 296.411C292.939 296.617 293.05 296.881 293.05 297.203C293.05 297.524 292.939 297.792 292.716 298.007C292.501 298.213 292.225 298.316 291.887 298.316C291.549 298.316 291.272 298.213 291.058 298.007C290.843 297.792 290.736 297.524 290.736 297.203C290.736 296.881 290.843 296.617 291.058 296.411C291.272 296.196 291.549 296.089 291.887 296.089Z" fill="#364157"/>
</svg>
